<svg width="66" height="66" viewBox="0 0 66 66" fill="none" xmlns="http://www.w3.org/2000/svg">
<path d="M13.6417 20.9023C13.6417 19.8249 14.0697 18.7916 14.8316 18.0297C15.5935 17.2679 16.6268 16.8398 17.7042 16.8398H47.4959C48.5733 16.8398 49.6066 17.2679 50.3685 18.0297C51.1304 18.7916 51.5584 19.8249 51.5584 20.9023V24.9648H13.6417V20.9023Z" fill="#C4A35A"/>
<path fill-rule="evenodd" clip-rule="evenodd" d="M43.4334 12.7773C43.7925 12.7773 44.137 12.92 44.3909 13.174C44.6449 13.4279 44.7876 13.7724 44.7876 14.1315V19.5482C44.7876 19.9073 44.6449 20.2518 44.3909 20.5057C44.137 20.7597 43.7925 20.9023 43.4334 20.9023C43.0742 20.9023 42.7298 20.7597 42.4759 20.5057C42.2219 20.2518 42.0792 19.9073 42.0792 19.5482V14.1315C42.0792 13.7724 42.2219 13.4279 42.4759 13.174C42.7298 12.92 43.0742 12.7773 43.4334 12.7773ZM21.7667 12.7773C22.1259 12.7773 22.4703 12.92 22.7243 13.174C22.9782 13.4279 23.1209 13.7724 23.1209 14.1315V19.5482C23.1209 19.9073 22.9782 20.2518 22.7243 20.5057C22.4703 20.7597 22.1259 20.9023 21.7667 20.9023C21.4076 20.9023 21.0631 20.7597 20.8092 20.5057C20.5552 20.2518 20.4126 19.9073 20.4126 19.5482V14.1315C20.4126 13.7724 20.5552 13.4279 20.8092 13.174C21.0631 12.92 21.4076 12.7773 21.7667 12.7773ZM13.6417 27.6732H51.5584V45.2773C51.5584 46.3548 51.1304 47.3881 50.3685 48.15C49.6066 48.9118 48.5733 49.3398 47.4959 49.3398H17.7042C16.6268 49.3398 15.5935 48.9118 14.8316 48.15C14.0697 47.3881 13.6417 46.3548 13.6417 45.2773V27.6732ZM42.0792 33.0898C42.0792 32.7307 42.2219 32.3863 42.4759 32.1323C42.7298 31.8783 43.0742 31.7357 43.4334 31.7357H46.1417C46.5009 31.7357 46.8453 31.8783 47.0993 32.1323C47.3532 32.3863 47.4959 32.7307 47.4959 33.0898C47.4959 33.449 47.3532 33.7934 47.0993 34.0474C46.8453 34.3013 46.5009 34.444 46.1417 34.444H43.4334C43.0742 34.444 42.7298 34.3013 42.4759 34.0474C42.2219 33.7934 42.0792 33.449 42.0792 33.0898ZM35.3084 31.7357C34.9492 31.7357 34.6048 31.8783 34.3508 32.1323C34.0969 32.3863 33.9542 32.7307 33.9542 33.0898C33.9542 33.449 34.0969 33.7934 34.3508 34.0474C34.6048 34.3013 34.9492 34.444 35.3084 34.444H38.0167C38.3759 34.444 38.7203 34.3013 38.9743 34.0474C39.2282 33.7934 39.3709 33.449 39.3709 33.0898C39.3709 32.7307 39.2282 32.3863 38.9743 32.1323C38.7203 31.8783 38.3759 31.7357 38.0167 31.7357H35.3084ZM25.8292 33.0898C25.8292 32.7307 25.9719 32.3863 26.2258 32.1323C26.4798 31.8783 26.8242 31.7357 27.1834 31.7357H29.8917C30.2509 31.7357 30.5953 31.8783 30.8493 32.1323C31.1032 32.3863 31.2459 32.7307 31.2459 33.0898C31.2459 33.449 31.1032 33.7934 30.8493 34.0474C30.5953 34.3013 30.2509 34.444 29.8917 34.444H27.1834C26.8242 34.444 26.4798 34.3013 26.2258 34.0474C25.9719 33.7934 25.8292 33.449 25.8292 33.0898ZM19.0584 37.1523C18.6992 37.1523 18.3548 37.295 18.1009 37.549C17.8469 37.8029 17.7042 38.1474 17.7042 38.5065C17.7042 38.8657 17.8469 39.2101 18.1009 39.4641C18.3548 39.718 18.6992 39.8607 19.0584 39.8607H21.7667C22.1259 39.8607 22.4703 39.718 22.7243 39.4641C22.9782 39.2101 23.1209 38.8657 23.1209 38.5065C23.1209 38.1474 22.9782 37.8029 22.7243 37.549C22.4703 37.295 22.1259 37.1523 21.7667 37.1523H19.0584ZM42.0792 38.5065C42.0792 38.1474 42.2219 37.8029 42.4759 37.549C42.7298 37.295 43.0742 37.1523 43.4334 37.1523H46.1417C46.5009 37.1523 46.8453 37.295 47.0993 37.549C47.3532 37.8029 47.4959 38.1474 47.4959 38.5065C47.4959 38.8657 47.3532 39.2101 47.0993 39.4641C46.8453 39.718 46.5009 39.8607 46.1417 39.8607H43.4334C43.0742 39.8607 42.7298 39.718 42.4759 39.4641C42.2219 39.2101 42.0792 38.8657 42.0792 38.5065ZM35.3084 37.1523C34.9492 37.1523 34.6048 37.295 34.3508 37.549C34.0969 37.8029 33.9542 38.1474 33.9542 38.5065C33.9542 38.8657 34.0969 39.2101 34.3508 39.4641C34.6048 39.718 34.9492 39.8607 35.3084 39.8607H38.0167C38.3759 39.8607 38.7203 39.718 38.9743 39.4641C39.2282 39.2101 39.3709 38.8657 39.3709 38.5065C39.3709 38.1474 39.2282 37.8029 38.9743 37.549C38.7203 37.295 38.3759 37.1523 38.0167 37.1523H35.3084ZM25.8292 38.5065C25.8292 38.1474 25.9719 37.8029 26.2258 37.549C26.4798 37.295 26.8242 37.1523 27.1834 37.1523H29.8917C30.2509 37.1523 30.5953 37.295 30.8493 37.549C31.1032 37.8029 31.2459 38.1474 31.2459 38.5065C31.2459 38.8657 31.1032 39.2101 30.8493 39.4641C30.5953 39.718 30.2509 39.8607 29.8917 39.8607H27.1834C26.8242 39.8607 26.4798 39.718 26.2258 39.4641C25.9719 39.2101 25.8292 38.8657 25.8292 38.5065ZM19.0584 42.569C18.6992 42.569 18.3548 42.7117 18.1009 42.9656C17.8469 43.2196 17.7042 43.564 17.7042 43.9232C17.7042 44.2823 17.8469 44.6268 18.1009 44.8807C18.3548 45.1347 18.6992 45.2773 19.0584 45.2773H21.7667C22.1259 45.2773 22.4703 45.1347 22.7243 44.8807C22.9782 44.6268 23.1209 44.2823 23.1209 43.9232C23.1209 43.564 22.9782 43.2196 22.7243 42.9656C22.4703 42.7117 22.1259 42.569 21.7667 42.569H19.0584ZM33.9542 43.9232C33.9542 43.564 34.0969 43.2196 34.3508 42.9656C34.6048 42.7117 34.9492 42.569 35.3084 42.569H38.0167C38.3759 42.569 38.7203 42.7117 38.9743 42.9656C39.2282 43.2196 39.3709 43.564 39.3709 43.9232C39.3709 44.2823 39.2282 44.6268 38.9743 44.8807C38.7203 45.1347 38.3759 45.2773 38.0167 45.2773H35.3084C34.9492 45.2773 34.6048 45.1347 34.3508 44.8807C34.0969 44.6268 33.9542 44.2823 33.9542 43.9232ZM27.1834 42.569C26.8242 42.569 26.4798 42.7117 26.2258 42.9656C25.9719 43.2196 25.8292 43.564 25.8292 43.9232C25.8292 44.2823 25.9719 44.6268 26.2258 44.8807C26.4798 45.1347 26.8242 45.2773 27.1834 45.2773H29.8917C30.2509 45.2773 30.5953 45.1347 30.8493 44.8807C31.1032 44.6268 31.2459 44.2823 31.2459 43.9232C31.2459 43.564 31.1032 43.2196 30.8493 42.9656C30.5953 42.7117 30.2509 42.569 29.8917 42.569H27.1834Z" fill="#C4A35A"/>
</svg>
