<svg width="49" height="48" viewBox="0 0 49 48" fill="none" xmlns="http://www.w3.org/2000/svg">
<path fill-rule="evenodd" clip-rule="evenodd" d="M12.35 4.80005C11.077 4.80005 9.85611 5.30576 8.95594 6.20594C8.05576 7.10611 7.55005 8.32701 7.55005 9.60005V43.2L15.95 38.4L24.35 43.2L32.75 38.4L41.15 43.2V9.60005C41.15 8.32701 40.6443 7.10611 39.7442 6.20594C38.844 5.30576 37.6231 4.80005 36.35 4.80005H12.35ZM18.35 12C17.3953 12 16.4796 12.3793 15.8045 13.0545C15.1293 13.7296 14.75 14.6453 14.75 15.6C14.75 16.5548 15.1293 17.4705 15.8045 18.1456C16.4796 18.8208 17.3953 19.2 18.35 19.2C19.3048 19.2 20.2205 18.8208 20.8956 18.1456C21.5708 17.4705 21.95 16.5548 21.95 15.6C21.95 14.6453 21.5708 13.7296 20.8956 13.0545C20.2205 12.3793 19.3048 12 18.35 12ZM33.2468 12.7032C32.7968 12.2533 32.1864 12.0006 31.55 12.0006C30.9137 12.0006 30.3033 12.2533 29.8532 12.7032L15.4532 27.1032C15.224 27.3246 15.0412 27.5895 14.9154 27.8823C14.7896 28.1751 14.7234 28.49 14.7206 28.8087C14.7179 29.1274 14.7786 29.4434 14.8993 29.7383C15.0199 30.0333 15.1982 30.3013 15.4235 30.5266C15.6488 30.7519 15.9168 30.9301 16.2118 31.0508C16.5067 31.1715 16.8227 31.2322 17.1414 31.2295C17.4601 31.2267 17.775 31.1605 18.0678 31.0347C18.3606 30.9089 18.6255 30.7261 18.8468 30.4968L33.2468 16.0968C33.6968 15.6468 33.9495 15.0364 33.9495 14.4C33.9495 13.7637 33.6968 13.1533 33.2468 12.7032ZM30.35 24C29.3953 24 28.4796 24.3793 27.8045 25.0545C27.1293 25.7296 26.75 26.6453 26.75 27.6C26.75 28.5548 27.1293 29.4705 27.8045 30.1456C28.4796 30.8208 29.3953 31.2 30.35 31.2C31.3048 31.2 32.2205 30.8208 32.8956 30.1456C33.5708 29.4705 33.95 28.5548 33.95 27.6C33.95 26.6453 33.5708 25.7296 32.8956 25.0545C32.2205 24.3793 31.3048 24 30.35 24Z" fill="#C4A35A"/>
</svg>
