<svg width="65" height="65" viewBox="0 0 65 65" fill="none" xmlns="http://www.w3.org/2000/svg">
<path fill-rule="evenodd" clip-rule="evenodd" d="M32.1522 8.58984C26.1295 8.58984 20.6428 10.5792 17.3962 12.2045C17.1028 12.3512 16.829 12.4943 16.5748 12.6338C16.0708 12.9085 15.6415 13.1645 15.3002 13.3898L18.9935 18.8272L20.7322 19.5192C27.5268 22.9472 36.6388 22.9472 43.4348 19.5192L45.4082 18.4952L48.9002 13.3898C48.176 12.9193 47.424 12.4932 46.6482 12.1138C43.4175 10.5058 38.0615 8.58984 32.1535 8.58984M23.5642 14.7445C22.2566 14.4984 20.965 14.1743 19.6962 13.7738C22.7375 12.4232 27.2695 10.9898 32.1535 10.9898C35.5362 10.9898 38.7348 11.6778 41.3802 12.5498C38.2802 12.9858 34.9722 13.7258 31.8202 14.6365C29.3402 15.3538 26.4415 15.2765 23.5642 14.7445ZM44.8442 21.4965L44.5162 21.6618C37.0415 25.4325 27.1268 25.4325 19.6522 21.6618L19.3415 21.5045C8.11082 33.8258 -0.462512 56.5858 32.1522 56.5858C64.7668 56.5858 55.9855 33.4032 44.8442 21.4965ZM30.7668 32.5898C30.0596 32.5898 29.3813 32.8708 28.8812 33.3709C28.3811 33.871 28.1002 34.5493 28.1002 35.2565C28.1002 35.9638 28.3811 36.642 28.8812 37.1421C29.3813 37.6422 30.0596 37.9232 30.7668 37.9232V32.5898ZM33.4335 29.9232V28.5898H30.7668V29.9232C29.3523 29.9232 27.9958 30.4851 26.9956 31.4853C25.9954 32.4855 25.4335 33.842 25.4335 35.2565C25.4335 36.671 25.9954 38.0276 26.9956 39.0277C27.9958 40.0279 29.3523 40.5898 30.7668 40.5898V45.9232C29.6068 45.9232 28.6188 45.1832 28.2508 44.1458C28.1962 43.9761 28.1081 43.8191 27.9918 43.684C27.8754 43.5489 27.7332 43.4386 27.5734 43.3594C27.4137 43.2803 27.2397 43.234 27.0617 43.2233C26.8838 43.2125 26.7055 43.2376 26.5374 43.297C26.3693 43.3564 26.2148 43.4489 26.0831 43.569C25.9514 43.6892 25.8451 43.8345 25.7705 43.9964C25.6959 44.1584 25.6546 44.3336 25.6489 44.5118C25.6432 44.69 25.6734 44.8675 25.7375 45.0338C26.1051 46.0739 26.7862 46.9744 27.6869 47.6113C28.5876 48.2481 29.6637 48.59 30.7668 48.5898V49.9232H33.4335V48.5898C34.848 48.5898 36.2045 48.0279 37.2047 47.0277C38.2049 46.0276 38.7668 44.671 38.7668 43.2565C38.7668 41.842 38.2049 40.4855 37.2047 39.4853C36.2045 38.4851 34.848 37.9232 33.4335 37.9232V32.5898C34.5935 32.5898 35.5815 33.3298 35.9495 34.3672C36.0041 34.5369 36.0922 34.6939 36.2085 34.829C36.3249 34.9641 36.4671 35.0745 36.6269 35.1536C36.7866 35.2327 36.9606 35.279 37.1386 35.2898C37.3165 35.3005 37.4948 35.2754 37.6629 35.216C37.831 35.1566 37.9855 35.0641 38.1172 34.944C38.249 34.8239 38.3553 34.6785 38.4298 34.5166C38.5044 34.3547 38.5457 34.1794 38.5514 34.0012C38.5571 33.823 38.527 33.6455 38.4628 33.4792C38.0952 32.4391 37.4141 31.5386 36.5134 30.9017C35.6127 30.2649 34.5366 29.923 33.4335 29.9232ZM33.4335 40.5898V45.9232C34.1407 45.9232 34.819 45.6422 35.3191 45.1421C35.8192 44.642 36.1002 43.9638 36.1002 43.2565C36.1002 42.5493 35.8192 41.871 35.3191 41.3709C34.819 40.8708 34.1407 40.5898 33.4335 40.5898Z" fill="#C4A35A"/>
</svg>
