<svg width="45" height="44" viewBox="0 0 45 44" fill="none" xmlns="http://www.w3.org/2000/svg">
<path d="M2.68335 40.3333H10.0167V20.1667H2.68335V40.3333ZM37.5167 31.1667H24.6833L20.8517 29.8283L21.4567 28.105L24.6833 29.3333H29.8533C31.045 29.3333 32.0167 28.3617 32.0167 27.17C32.0167 26.2717 31.4483 25.465 30.605 25.135L17.295 20.1667H13.6833V36.7033L26.5167 40.3333L41.1833 34.8333C41.165 32.8167 39.5517 31.1667 37.5167 31.1667ZM26.5167 2.75L13.6833 11.9167V16.5H17.35L32.2733 22.4767C34.3267 23.3017 35.6833 25.2817 35.6833 27.5H39.35V11.9167L26.5167 2.75ZM25.6 18.3333H23.7667V16.5H25.6V18.3333ZM25.6 14.6667H23.7667V12.8333H25.6V14.6667ZM29.2667 18.3333H27.4333V16.5H29.2667V18.3333ZM29.2667 14.6667H27.4333V12.8333H29.2667V14.6667Z" fill="#C4A35A"/>
</svg>
