<svg width="65" height="65" viewBox="0 0 65 65" fill="none" xmlns="http://www.w3.org/2000/svg">
<path d="M19.0167 5.9231H45.6834C47.0979 5.9231 48.4544 6.485 49.4546 7.48519C50.4548 8.48539 51.0167 9.84194 51.0167 11.2564V53.9231C51.0167 55.3376 50.4548 56.6941 49.4546 57.6943C48.4544 58.6945 47.0979 59.2564 45.6834 59.2564H19.0167C17.6022 59.2564 16.2457 58.6945 15.2455 57.6943C14.2453 56.6941 13.6834 55.3376 13.6834 53.9231V11.2564C13.6834 9.84194 14.2453 8.48539 15.2455 7.48519C16.2457 6.485 17.6022 5.9231 19.0167 5.9231ZM19.0167 11.2564V21.9231H45.6834V11.2564H19.0167ZM19.0167 27.2564V32.5898H24.35V27.2564H19.0167ZM29.6834 27.2564V32.5898H35.0167V27.2564H29.6834ZM40.35 27.2564V32.5898H45.6834V27.2564H40.35ZM19.0167 37.9231V43.2564H24.35V37.9231H19.0167ZM29.6834 37.9231V43.2564H35.0167V37.9231H29.6834ZM40.35 37.9231V43.2564H45.6834V37.9231H40.35ZM19.0167 48.5898V53.9231H24.35V48.5898H19.0167ZM29.6834 48.5898V53.9231H35.0167V48.5898H29.6834ZM40.35 48.5898V53.9231H45.6834V48.5898H40.35Z" fill="#C4A35A"/>
</svg>
